<svg width="72" height="31" viewBox="0 0 72 31" fill="none" xmlns="http://www.w3.org/2000/svg">
<g clip-path="url(#clip0_3734_75531)">
<path d="M41.6798 4.52344H36.8828V5.50835H38.741V11.1519H39.7646V5.50835H41.6798V4.52344Z" fill="#85C556"/>
<path d="M43.1213 7.16013C43.355 7.03076 43.6427 6.96594 43.9839 6.96594C44.1988 6.96594 44.3977 7.01342 44.5811 7.10799C44.7645 7.20295 44.9159 7.33232 45.0362 7.49632C45.1564 7.66033 45.2255 7.84672 45.2447 8.055V8.12129H42.4609C42.4907 7.97744 42.5336 7.84596 42.5903 7.72802C42.7102 7.47893 42.8872 7.28939 43.1213 7.16013ZM45.61 6.7576C45.4043 6.54292 45.1624 6.37425 44.8847 6.25101C44.6063 6.12803 44.3062 6.06641 43.9839 6.06641C43.6175 6.06641 43.2777 6.13085 42.9649 6.26055C42.652 6.38986 42.3832 6.57267 42.159 6.80968C41.9349 7.04637 41.7593 7.32555 41.6331 7.64759C41.5068 7.96926 41.4434 8.3261 41.4434 8.71758C41.4434 9.20965 41.5558 9.64508 41.7799 10.0242C42.0044 10.4029 42.3141 10.7012 42.7092 10.9187C43.1039 11.1366 43.5575 11.2454 44.0693 11.2454C44.3031 11.2454 44.5422 11.2124 44.7854 11.1462C45.0287 11.08 45.2593 10.99 45.4774 10.8762C45.6955 10.7625 45.8803 10.63 46.0321 10.4783L45.5391 9.78719C45.2926 10.0019 45.0634 10.1499 44.8521 10.2322C44.64 10.3143 44.4112 10.3551 44.1647 10.3551C43.8171 10.3551 43.5104 10.286 43.2451 10.1471C42.9794 10.0078 42.7741 9.81087 42.6286 9.55511C42.5187 9.36205 42.4506 9.14271 42.424 8.89719H46.2314L46.241 8.48057C46.2474 8.1337 46.1952 7.81301 46.0846 7.51968C45.9739 7.22598 45.8157 6.97195 45.6108 6.75727" fill="#85C556"/>
<path d="M47.3203 11.1514H48.2971V4.14453H47.3203V11.1514Z" fill="#85C556"/>
<path d="M50.9607 7.16013C51.1945 7.03076 51.482 6.96594 51.8232 6.96594C52.0382 6.96594 52.2372 7.01342 52.4205 7.10799C52.6039 7.20295 52.7554 7.33232 52.8756 7.49632C52.9958 7.66033 53.065 7.84672 53.0841 8.055V8.12129H50.3003C50.3301 7.97744 50.373 7.84596 50.4298 7.72802C50.5497 7.47893 50.7267 7.28939 50.9607 7.16013ZM54.0797 8.48089C54.0857 8.1337 54.0336 7.81344 53.9232 7.51968C53.8126 7.22631 53.6544 6.97233 53.4491 6.7576C53.2441 6.54292 53.0019 6.37425 52.7238 6.25101C52.4457 6.12803 52.1456 6.06641 51.8232 6.06641C51.4566 6.06641 51.1171 6.13085 50.8043 6.26055C50.4915 6.38986 50.2226 6.57267 49.9985 6.80968C49.7744 7.04637 49.5987 7.32555 49.4725 7.64759C49.3459 7.96926 49.2827 8.3261 49.2827 8.71758C49.2827 9.20965 49.3952 9.64508 49.6193 10.0242C49.8438 10.4029 50.1534 10.7012 50.5482 10.9187C50.9434 11.1366 51.3969 11.2454 51.9087 11.2454C52.1424 11.2454 52.3815 11.2124 52.6248 11.1462C52.8682 11.08 53.0987 10.99 53.3168 10.8762C53.5349 10.7625 53.7197 10.63 53.8715 10.4783L53.3785 9.78719C53.132 10.0019 52.9029 10.1499 52.6911 10.2322C52.4794 10.3143 52.2502 10.3551 52.0038 10.3551C51.6562 10.3551 51.3498 10.286 51.0845 10.1471C50.8188 10.0078 50.6134 9.81087 50.468 9.55511C50.3581 9.36205 50.29 9.14271 50.2631 8.89719H54.0708L54.0797 8.48089Z" fill="#85C556"/>
<path d="M40.6596 16.3589L38.4848 12.8242H37.48V19.4526H38.504V16.7349C38.504 16.1226 38.4898 15.594 38.461 15.1487L38.4089 14.5485L40.3146 17.549H40.9402L42.8874 14.5425C42.8642 14.7614 42.8451 14.9808 42.8313 15.2008C42.8029 15.6553 42.7887 16.1665 42.7887 16.7349V19.4526H43.8127V12.8242H42.8647L40.6596 16.3589Z" fill="#207ABE"/>
<path d="M47.024 16.8862L47.529 15.5609C47.567 15.4535 47.6141 15.3193 47.6712 15.1584C47.728 14.9976 47.7862 14.8257 47.8464 14.6422C47.9067 14.459 47.9635 14.2857 48.017 14.1217L48.0436 14.0407C48.0461 14.0474 48.0479 14.0534 48.0504 14.0601C48.1071 14.234 48.1703 14.4247 48.2398 14.633C48.3096 14.8413 48.3706 15.0305 48.4246 15.2009C48.4784 15.3717 48.5146 15.479 48.5338 15.523L49.0513 16.8867L47.024 16.8862ZM47.5478 12.8906L44.9785 19.519H46.0217L46.6491 17.8712H49.4251L50.0504 19.519H51.1406L48.5905 12.8906H47.5478Z" fill="#207ABE"/>
<path d="M56.9434 15.0684C56.9434 15.3461 56.9466 15.6144 56.9531 15.873C56.9591 16.132 56.9672 16.3797 56.977 16.6167C56.9867 16.8533 56.9992 17.0776 57.0155 17.2888C57.0306 17.5003 57.048 17.699 57.0669 17.8853L57.0854 18.0487L53.2277 12.8906H52.3081V19.519H53.332V16.7633C53.332 16.7066 53.3302 16.6404 53.3274 16.5646C53.3242 16.4888 53.3192 16.3924 53.3132 16.2755C53.3068 16.1586 53.2954 16.0073 53.2798 15.8213C53.2643 15.635 53.2451 15.4078 53.2231 15.1393C53.2068 14.9445 53.188 14.718 53.167 14.4608L57.029 19.519H57.9677V12.8906H56.9434V15.0684Z" fill="#207ABE"/>
<path d="M61.1792 16.8862L61.6844 15.5609C61.7223 15.4535 61.7695 15.3193 61.8264 15.1584C61.8838 14.9976 61.9413 14.8257 62.002 14.6422C62.0621 14.459 62.119 14.2857 62.1727 14.1217L62.1993 14.0407C62.2014 14.0474 62.2036 14.0534 62.2063 14.0601C62.2627 14.234 62.3261 14.4247 62.3955 14.633C62.4648 14.8413 62.5266 15.0305 62.5803 15.2009C62.6339 15.3717 62.6702 15.479 62.6892 15.523L63.2068 16.8867L61.1792 16.8862ZM61.7033 12.8906L59.1338 19.519H60.1771L60.8042 17.8712H63.5802L64.2057 19.519H65.2962L62.7461 12.8906H61.7033Z" fill="#207ABE"/>
<path d="M70.7797 16.9159C70.6816 16.7202 70.5374 16.5435 70.3482 16.3858C70.158 16.2278 69.9271 16.0907 69.6561 15.9738C69.3841 15.8568 69.0746 15.7605 68.7266 15.6846C68.4806 15.6344 68.2686 15.5758 68.092 15.5097C67.9147 15.4434 67.7744 15.3676 67.6698 15.2825C67.5657 15.1972 67.4876 15.0994 67.4372 14.9888C67.3868 14.8786 67.3614 14.7571 67.3614 14.6247C67.3614 14.4414 67.4134 14.2821 67.518 14.1463C67.6221 14.0106 67.7657 13.9051 67.9494 13.8292C68.1326 13.7535 68.3478 13.7155 68.5938 13.7155C68.809 13.7155 69.0112 13.752 69.2003 13.8243C69.39 13.8969 69.564 14.0043 69.7222 14.1463C69.8805 14.2884 70.022 14.4634 70.1488 14.6718L70.8691 13.9614C70.7238 13.7091 70.5412 13.4962 70.3195 13.3223C70.0978 13.149 69.8453 13.018 69.5613 12.9293C69.2767 12.8408 68.964 12.7969 68.6226 12.7969C68.3006 12.7969 67.9998 12.8426 67.7218 12.9339C67.4443 13.0257 67.202 13.1551 66.9966 13.3223C66.7907 13.4895 66.6302 13.6869 66.5126 13.9139C66.3961 14.1414 66.3381 14.3877 66.3381 14.6526C66.3381 14.9243 66.3787 15.1689 66.4611 15.3864C66.5435 15.6039 66.6698 15.7984 66.84 15.9688C67.0107 16.1389 67.2226 16.281 67.4757 16.3947C67.7283 16.5084 68.0253 16.5998 68.3662 16.6696C68.5814 16.7075 68.7705 16.7532 68.9353 16.8067C69.0995 16.8602 69.2437 16.9219 69.3662 16.9917C69.4897 17.061 69.5911 17.1365 69.6697 17.2188C69.7488 17.3009 69.8073 17.3924 69.8447 17.4937C69.8832 17.5946 69.9022 17.7016 69.9022 17.8154C69.9022 17.9858 69.8447 18.1374 69.7315 18.2699C69.6176 18.4024 69.4621 18.5066 69.2664 18.5825C69.0708 18.6582 68.8529 18.6961 68.6128 18.6961C68.2209 18.6961 67.8828 18.6108 67.5982 18.4403C67.3137 18.2696 67.0167 17.9638 66.7072 17.5217L66.0059 18.3266C66.2015 18.6108 66.4243 18.8488 66.6741 19.0412C66.924 19.234 67.202 19.3774 67.5088 19.472C67.8155 19.5666 68.1483 19.6141 68.5082 19.6141C69.0074 19.6141 69.4377 19.5305 69.7976 19.3632C70.1585 19.196 70.4366 18.9576 70.6322 18.6483C70.8279 18.339 70.926 17.973 70.926 17.55C70.926 17.3226 70.8772 17.1114 70.7791 16.9155" fill="#207ABE"/>
<path d="M18.5061 24.6065C17.6358 23.2888 17.218 21.7945 16.9328 20.2653C16.8562 19.8533 16.6934 19.585 16.3572 19.3636C15.3889 18.7263 14.588 17.9206 14.0742 16.8744C13.5741 15.8565 13.5651 14.7788 13.8227 13.6935C13.8592 13.538 13.9334 13.3223 14.1497 13.4115C14.2352 13.4466 14.293 13.6631 14.2841 13.7917C14.2383 14.4429 14.1763 15.0954 14.4856 15.7017C14.6168 15.9596 14.8062 16.1881 14.9696 16.4298C15.0229 16.406 15.0105 16.4113 15.0633 16.3876C14.9999 16.1357 14.8813 15.8831 14.8852 15.6322C14.8888 15.386 15.0126 15.1416 15.0846 14.8964C15.1204 14.8939 15.1218 14.8939 15.1576 14.8911C15.2917 15.1702 15.3719 15.4934 15.5627 15.7258C15.7734 15.983 16.0493 16.2189 16.3458 16.367C16.9165 16.6522 17.2513 17.0969 17.441 17.6797C17.4616 17.7435 17.485 17.8122 17.4807 17.8766C17.4233 18.7404 17.9163 19.3842 18.3475 20.0517C19.2712 21.4809 19.7546 23.033 19.6588 24.7435C19.6378 25.1205 19.5567 25.494 19.5148 25.8691C19.1821 25.4457 18.8015 25.0543 18.5061 24.6065Z" fill="#85C556"/>
<path d="M20.5353 14.8197C21.3053 15.2335 20.984 15.7961 20.8368 16.346C21.2046 16.1316 21.4188 15.8085 21.466 15.4249C21.5259 14.9405 21.5245 14.4455 21.5139 13.9563C21.5068 13.6162 21.516 13.5219 21.7827 13.3359C22.0484 14.036 22.1445 14.7421 22.0667 15.473C21.8987 17.056 21.0113 18.2368 19.9087 19.2912C19.5876 19.598 19.2386 19.8754 18.89 20.1769C18.6155 19.732 18.3605 19.3181 18.1462 18.9712C18.275 18.4944 18.4371 18.076 18.4921 17.6441C18.563 17.0889 18.8198 16.6702 19.3078 16.4626C20.0395 16.1515 20.4669 15.6495 20.5353 14.8197Z" fill="#207ABE"/>
<path d="M15.7965 20.5552C13.9888 21.8257 11.3199 20.8124 10.7173 18.9329C12.1118 17.948 14.7371 18.185 15.7965 20.5552Z" fill="#85C556"/>
<path d="M19.8972 20.5561C20.8953 18.3198 23.4007 17.8713 24.9648 18.9264C24.3806 20.7941 21.7167 21.8152 19.8972 20.5561Z" fill="#85C556"/>
<path d="M20.0204 10.5949C19.9998 9.15006 21.1465 7.91747 22.4542 7.62735C22.4964 7.61814 22.5609 7.63689 22.6187 7.66843C22.6769 7.6996 22.7283 7.74317 22.7432 7.78322C23.3149 9.28929 22.6474 10.7915 21.3405 11.4891C21.117 11.6085 20.8631 11.6701 20.6343 11.7814C20.3899 11.9004 20.2668 11.7895 20.2151 11.5748C20.1367 11.2517 20.0842 10.9222 20.0204 10.5949Z" fill="#2483C5"/>
<path d="M15.6861 10.4837L15.4464 11.5175C15.3982 11.7191 15.2538 11.7449 15.084 11.6921C13.3776 11.1628 12.2629 9.49308 12.9442 7.64968C13.0201 7.44487 13.1432 7.43533 13.3098 7.48812C14.626 7.90582 15.6783 9.01581 15.6861 10.4837Z" fill="#2483C5"/>
<path d="M22.8785 14.5515C22.6196 13.3586 23.258 12.0565 24.2695 11.4975C24.7264 11.2449 25.2687 11.1439 25.7772 10.9887C25.9383 10.9395 26.045 11.0011 26.0638 11.2038C26.2287 12.9887 24.8366 14.6015 22.936 14.5745C22.9168 14.5745 22.8973 14.5593 22.8785 14.5515Z" fill="#85C556"/>
<path d="M9.73409 11.1169C11.6362 11.0222 13.2162 12.8192 12.8484 14.6303C11.1431 14.8858 9.30668 13.0315 9.73409 11.1169Z" fill="#85C556"/>
<path d="M17.0343 10.2305C17.7443 10.6045 18.1802 11.1257 18.3115 11.8634C18.4033 12.3781 18.2902 12.8706 18.038 13.3251C18.0125 13.3712 17.8702 13.4042 17.8189 13.3761C16.8655 12.855 16.4349 11.7461 16.7854 10.7098C16.8414 10.544 16.9471 10.3952 17.0343 10.2305Z" fill="#85C556"/>
<path d="M23.6953 17.3842C23.7812 16.6849 24.0893 16.113 24.6061 15.6729C25.1651 15.1979 25.8265 14.9803 26.5696 15.0586C27.0551 15.1097 27.0714 15.1458 26.9576 15.6237C26.6238 17.0243 25.1168 17.8409 23.6953 17.3842Z" fill="#2483C5"/>
<path d="M11.9624 17.3837C10.4671 17.936 8.72216 16.7821 8.66357 15.2019C9.9748 14.5989 11.878 15.7469 11.9624 17.3837Z" fill="#2483C5"/>
<path d="M20.4386 5.87109C21.0918 6.5089 20.8038 7.74815 20.0148 8.05784C19.4008 7.40632 19.603 6.36506 20.4386 5.87109Z" fill="#85C556"/>
<path d="M15.8192 8.05567C14.9548 7.65352 14.8194 6.32923 15.4156 5.87109C16.2277 6.35156 16.4352 7.43179 15.8192 8.05567Z" fill="#85C556"/>
<path d="M19.1128 13.6582C18.956 12.9642 19.6554 12.1252 20.3903 12.1912C20.568 12.9996 19.948 13.7234 19.1128 13.6582Z" fill="#2483C5"/>
<path d="M25.042 9.11341C25.2318 9.94351 24.5927 10.4998 23.9319 10.5873C23.8734 10.595 23.7411 10.4739 23.7382 10.409C23.7149 9.82444 24.3118 9.01667 25.042 9.11341Z" fill="#2483C5"/>
<path d="M16.3523 14.1067C15.538 14.2573 14.896 13.6829 14.934 12.8383C15.6731 12.6597 16.4019 13.3116 16.3523 14.1067Z" fill="#2483C5"/>
<path d="M10.5753 9.06282C11.2847 8.91763 12.0337 9.7938 11.8383 10.4758C11.0467 10.6253 10.3671 9.69212 10.5753 9.06282Z" fill="#2483C5"/>
<path d="M29.6615 9.31906C27.0891 5.43601 23.3002 3.85128 18.6855 4.18358C18.7717 4.22717 18.8689 4.25122 18.9661 4.2583C21.1789 4.42163 23.053 5.41187 24.7409 6.74582C26.6178 8.22891 27.4853 10.2725 27.6687 12.6263C27.7393 13.5248 28.0198 14.3276 28.594 15.049C28.9718 15.5248 29.2665 16.0743 29.5417 16.6177C29.7346 17.0011 29.602 17.3108 29.2342 17.5308C29.031 17.6534 28.8068 17.7405 28.5894 17.839C28.0989 18.0629 28.0397 18.1731 28.2131 18.6886C28.3344 19.0507 28.395 19.3844 28.017 19.6338C28.2131 19.8801 28.2089 20.1167 28.0719 20.3491C27.9056 20.6336 27.7407 20.921 27.5474 21.1874C27.2821 21.5563 27.2541 21.9421 27.3839 22.3622C27.4474 22.5719 27.5009 22.786 27.5374 23.0014C27.6336 23.5792 27.3754 23.9973 26.8129 24.1507C26.5759 24.2142 26.3262 24.2453 26.0808 24.2563C25.1459 24.3016 24.2049 24.2786 23.2757 24.3792C21.9287 24.5241 20.7703 25.3741 20.3334 26.6361L20.2333 26.6205C19.8255 26.5613 19.4722 26.4185 19.1395 26.099C18.2018 25.199 17.6378 24.0905 17.1867 22.91C16.9526 22.3045 16.7749 21.5247 16.5663 20.888C16.1173 21.6731 15.983 22.5301 15.9783 23.4333C15.9744 24.2248 16.2188 25.0223 16.6246 25.7039C17.0562 26.4302 17.7031 26.9879 18.5054 27.2376C19.4197 27.5221 20.2653 27.5293 21.2073 27.4201C21.5836 27.3766 21.9531 27.317 22.3142 27.244C25.6254 26.5865 28.2567 24.719 30.0351 21.6186C32.4 17.4974 32.2861 13.28 29.6615 9.31906Z" fill="#207ABE"/>
<path d="M18.7691 27.9721C11.4739 26.9669 7.53452 22.5745 7.53452 15.8142C7.53452 9.05049 13.0568 3.55261 19.8289 3.57386C21.8767 3.58019 23.8051 4.09074 25.5001 4.98393C23.5498 3.78255 21.2504 3.09096 18.789 3.09771C11.8357 3.11753 6.14354 8.77663 6.09384 15.7214C6.04352 22.787 11.763 28.5308 18.8256 28.5308H69.0542C70.5479 28.5308 71.7604 27.3223 71.7631 25.8301V25.7475C71.7658 24.2446 70.542 23.0276 69.0374 23.0372C59.8286 23.0967 30.4375 23.2877 30.4251 23.3026C27.9094 26.297 23.7267 28.6552 18.7691 27.9721Z" fill="#85C556"/>
<path d="M18.9697 15.0887C19.1101 15.719 18.8469 16.3099 18.3827 16.4087C17.9184 16.508 17.4286 16.0775 17.2885 15.4476C17.148 14.817 17.4115 14.2267 17.8758 14.1275C18.3397 14.0284 18.8299 14.4585 18.9697 15.0887Z" fill="#2483C5"/>
<path d="M37.5283 22.0831V20.8711H37.6964L38.438 21.8628L38.4103 21.8784C38.4058 21.8496 38.4018 21.8185 38.3979 21.7841L38.3884 21.675C38.3855 21.6364 38.3834 21.5953 38.3816 21.552L38.377 21.416C38.376 21.3689 38.3752 21.32 38.3752 21.269V20.8711H38.5625V22.0828H38.3908L37.6613 21.1269L37.6801 21.1028C37.6861 21.173 37.6911 21.2328 37.695 21.2821C37.6993 21.3313 37.7025 21.3728 37.7056 21.4065C37.7085 21.4408 37.7103 21.4684 37.7113 21.4897L37.7141 21.5425C37.7145 21.5563 37.7153 21.5684 37.7153 21.579V22.0824L37.5283 22.0831Z" fill="#85C556"/>
<path d="M39.255 21.9328C39.3092 21.9328 39.3571 21.9194 39.3989 21.8929C39.4408 21.8666 39.4731 21.8298 39.4968 21.783C39.5206 21.7362 39.5322 21.6831 39.5322 21.6228C39.5322 21.564 39.5206 21.5112 39.4968 21.4652C39.4731 21.4191 39.4408 21.3826 39.3989 21.3561C39.3571 21.3298 39.3092 21.3163 39.255 21.3163C39.2017 21.3163 39.1549 21.3295 39.1138 21.3561C39.0726 21.3826 39.0403 21.4191 39.0166 21.4652C38.9928 21.5112 38.9812 21.564 38.9812 21.6228C38.9812 21.6827 38.9928 21.7362 39.0166 21.783C39.0403 21.8298 39.0726 21.8666 39.1138 21.8929C39.1549 21.9194 39.2017 21.9328 39.255 21.9328ZM39.2081 22.0972C39.1329 22.0972 39.0645 22.0763 39.0028 22.0349C38.941 21.9934 38.8914 21.9368 38.8545 21.8652C38.8176 21.7939 38.7988 21.7128 38.7988 21.6228C38.7988 21.5318 38.8176 21.4507 38.8555 21.3798C38.8929 21.3089 38.9439 21.2533 39.0081 21.2126C39.0723 21.1722 39.1443 21.1523 39.2237 21.1523C39.2709 21.1523 39.3145 21.1591 39.3536 21.1733C39.3929 21.1871 39.4273 21.2062 39.4571 21.231C39.4869 21.2561 39.5107 21.2845 39.5298 21.3168C39.5486 21.349 39.5606 21.3834 39.5652 21.4206L39.5255 21.4064V21.1712H39.7057V22.0802H39.5255V21.8638L39.567 21.8517C39.5599 21.8829 39.5457 21.913 39.5245 21.9424C39.5032 21.9722 39.4759 21.9984 39.4429 22.0214C39.4103 22.0448 39.3737 22.0629 39.3337 22.0771C39.294 22.0905 39.2521 22.0972 39.2081 22.0972Z" fill="#85C556"/>
<path d="M40.4557 21.1728V21.3461H40.245V22.0822H40.0662V21.3461H39.8765V21.1728H40.0662V20.9414H40.245V21.1728H40.4557Z" fill="#85C556"/>
<path d="M40.6482 21.172H40.8267V22.0811H40.6482V21.172ZM40.7348 20.9711C40.6969 20.9711 40.6674 20.9612 40.6465 20.9421C40.6255 20.9222 40.6152 20.8946 40.6152 20.8588C40.6152 20.8251 40.6259 20.7982 40.6472 20.7773C40.6685 20.7564 40.6976 20.7461 40.7348 20.7461C40.7727 20.7461 40.8022 20.7561 40.8231 20.7755C40.844 20.795 40.8543 20.823 40.8543 20.8588C40.8543 20.8921 40.8434 20.919 40.8221 20.94C40.8008 20.9608 40.7717 20.9711 40.7348 20.9711Z" fill="#85C556"/>
<path d="M41.5095 21.9353C41.5638 21.9353 41.6124 21.9215 41.655 21.8945C41.6979 21.8673 41.7312 21.8305 41.7553 21.784C41.7798 21.7373 41.7911 21.6845 41.7901 21.6257C41.7911 21.5654 41.7798 21.5119 41.7553 21.4652C41.7312 21.4184 41.6975 21.3819 41.655 21.3553C41.6124 21.3288 41.5638 21.3157 41.5095 21.3157C41.4553 21.3157 41.4064 21.3291 41.3631 21.3561C41.3198 21.3833 41.2861 21.4205 41.2616 21.467C41.2375 21.5137 41.2258 21.5665 41.2272 21.6253C41.2258 21.6841 41.2375 21.737 41.2616 21.7837C41.2861 21.8305 41.3198 21.8673 41.3631 21.8942C41.4064 21.9211 41.4553 21.9353 41.5095 21.9353ZM41.5095 22.0976C41.4206 22.0976 41.3411 22.077 41.2713 22.0363C41.2013 21.9952 41.1459 21.9396 41.1055 21.868C41.0651 21.7975 41.0449 21.7164 41.0449 21.625C41.0449 21.5339 41.0651 21.4528 41.1055 21.3819C41.1464 21.3111 41.2013 21.2547 41.2713 21.214C41.3411 21.1729 41.4206 21.1523 41.5095 21.1523C41.5972 21.1523 41.6762 21.1729 41.7461 21.214C41.816 21.2547 41.8713 21.3107 41.9117 21.3819C41.9522 21.4528 41.9724 21.5339 41.9724 21.625C41.9724 21.7164 41.9522 21.7975 41.9117 21.868C41.8713 21.9393 41.816 21.9952 41.7461 22.0363C41.6762 22.077 41.5975 22.0976 41.5095 22.0976Z" fill="#85C556"/>
<path d="M42.167 22.0802V21.1712H42.3454V21.3582L42.3142 21.3791C42.3255 21.3387 42.3482 21.3015 42.3816 21.2675C42.4153 21.2335 42.455 21.2058 42.5011 21.1842C42.5472 21.163 42.5951 21.1523 42.6433 21.1523C42.7128 21.1523 42.7707 21.1658 42.8168 21.1931C42.8632 21.22 42.8973 21.2614 42.9207 21.3168C42.9441 21.3723 42.9554 21.4421 42.9554 21.5262V22.0802H42.7767V21.5382C42.7767 21.4861 42.7699 21.4432 42.7557 21.4092C42.7419 21.3752 42.7206 21.3504 42.692 21.3352C42.6632 21.3195 42.627 21.3128 42.5844 21.315C42.5501 21.315 42.5181 21.3203 42.4894 21.3313C42.4603 21.3426 42.4351 21.3575 42.4138 21.3773L42.3635 21.4457C42.3514 21.4716 42.3458 21.4996 42.3458 21.5297V22.0802H42.167Z" fill="#85C556"/>
<path d="M43.5952 21.9328C43.6495 21.9328 43.6973 21.9194 43.7389 21.8929C43.7808 21.8666 43.8133 21.8298 43.8371 21.783C43.8609 21.7362 43.8726 21.6831 43.8726 21.6228C43.8726 21.564 43.8609 21.5112 43.8371 21.4652C43.8133 21.4191 43.7808 21.3826 43.7389 21.3561C43.6973 21.3298 43.6495 21.3163 43.5952 21.3163C43.5421 21.3163 43.4949 21.3295 43.4537 21.3561C43.413 21.3826 43.3803 21.4191 43.3569 21.4652C43.3331 21.5112 43.3214 21.564 43.3214 21.6228C43.3214 21.6827 43.3331 21.7362 43.3569 21.783C43.3807 21.8298 43.413 21.8666 43.4537 21.8929C43.4949 21.9194 43.5421 21.9328 43.5952 21.9328ZM43.5485 22.0972C43.4732 22.0972 43.4048 22.0763 43.3427 22.0349C43.281 21.9934 43.2317 21.9368 43.1948 21.8652C43.1576 21.7939 43.1392 21.7128 43.1392 21.6228C43.1392 21.5318 43.1579 21.4507 43.1955 21.3798C43.2331 21.3089 43.2842 21.2533 43.3481 21.2126C43.4122 21.1722 43.4842 21.1523 43.564 21.1523C43.6112 21.1523 43.6548 21.1591 43.6938 21.1733C43.7329 21.1871 43.7673 21.2062 43.7971 21.231C43.8268 21.2561 43.851 21.2845 43.8701 21.3168C43.8889 21.349 43.9006 21.3834 43.9056 21.4206L43.8655 21.4064V21.1712H44.0461V22.0802H43.8655V21.8638L43.9074 21.8517C43.9003 21.8829 43.8861 21.913 43.8648 21.9424C43.8431 21.9722 43.8162 21.9984 43.7832 22.0214C43.7502 22.0448 43.7137 22.0629 43.674 22.0771C43.6339 22.0905 43.5924 22.0972 43.5485 22.0972Z" fill="#85C556"/>
<path d="M44.2993 20.8008H44.4777V22.0815H44.2993V20.8008Z" fill="#85C556"/>
<path d="M45.4921 22.0831V21.0511H45.1523V20.8711H46.0295V21.0511H45.6794V22.0828L45.4921 22.0831Z" fill="#85C556"/>
<path d="M46.6796 21.5573V21.5254H46.1741C46.1767 21.4995 46.1844 21.4755 46.195 21.4546C46.2163 21.4099 46.2504 21.3756 46.2926 21.3521C46.3344 21.3284 46.3869 21.3153 46.4504 21.3153C46.4898 21.3153 46.5267 21.3231 46.5583 21.3419C46.5926 21.3603 46.6214 21.3837 46.6423 21.4128C46.6636 21.4418 46.6767 21.4758 46.6791 21.5151V21.5258H46.7058L46.6796 21.5573ZM46.8636 21.5914C46.8636 21.5283 46.8533 21.4705 46.8345 21.4177C46.8136 21.3627 46.7845 21.3181 46.7476 21.2785C46.7082 21.2392 46.6661 21.2072 46.6136 21.1839C46.5636 21.1626 46.5082 21.1523 46.4504 21.1523C46.382 21.1523 46.3213 21.1626 46.2635 21.1864C46.2053 21.2097 46.1582 21.2441 46.116 21.2859C46.0737 21.3305 46.0422 21.3805 46.0213 21.4386C45.9975 21.4992 45.9844 21.5647 45.9844 21.636C45.9844 21.7252 46.0056 21.8042 46.0475 21.8751C46.0869 21.9435 46.1451 21.9988 46.216 22.0381C46.2898 22.0773 46.3713 22.0987 46.466 22.0987C46.5082 22.0987 46.5533 22.0905 46.5951 22.0799L46.7242 22.0303C46.7636 22.009 46.798 21.9856 46.8242 21.9566L46.7345 21.8301C46.6899 21.8698 46.6477 21.8985 46.6083 21.9119C46.5689 21.9275 46.5264 21.9357 46.4816 21.9357C46.4185 21.9357 46.3632 21.9226 46.3135 21.8963C46.266 21.8726 46.2291 21.8358 46.2028 21.7886C46.1844 21.7518 46.1713 21.7121 46.1688 21.6675H46.8611L46.8636 21.5914Z" fill="#85C556"/>
<path d="M47.0601 20.8008H47.2385V22.0815H47.0601V20.8008Z" fill="#85C556"/>
<path d="M47.6282 21.4546C47.6491 21.4099 47.6807 21.3756 47.7229 21.3518C47.7676 21.3281 47.8201 21.3154 47.8807 21.3154C47.9201 21.3154 47.957 21.3231 47.9911 21.3416C48.025 21.36 48.0517 21.3837 48.0726 21.4128C48.0964 21.4414 48.1095 21.4758 48.1124 21.5151V21.5258H47.6041C47.6095 21.4996 47.6176 21.4758 47.6282 21.4546ZM48.2939 21.5914C48.2939 21.5283 48.2857 21.4705 48.2648 21.4181C48.244 21.3629 48.2177 21.3181 48.1779 21.2785C48.141 21.2391 48.0964 21.2076 48.0463 21.1839C47.9964 21.163 47.941 21.1523 47.8807 21.1523C47.8148 21.1523 47.7516 21.163 47.6963 21.1867C47.6384 21.2104 47.5885 21.2445 47.5487 21.2863C47.5069 21.3309 47.475 21.3812 47.4516 21.439C47.4278 21.4996 47.4175 21.5651 47.4175 21.6363C47.4175 21.7259 47.4384 21.8046 47.4779 21.8755C47.52 21.9439 47.5754 21.9991 47.6491 22.0384C47.72 22.0778 47.8041 22.099 47.8963 22.099C47.941 22.099 47.9832 22.0908 48.0279 22.0805L48.1545 22.0306C48.1939 22.0094 48.2283 21.986 48.257 21.957L48.1652 21.8305C48.1204 21.8702 48.0779 21.8989 48.0414 21.9123C48.002 21.9279 47.9595 21.9361 47.9147 21.9361C47.8516 21.9361 47.7938 21.9229 47.7467 21.8968C47.6991 21.873 47.6594 21.8361 47.6335 21.789C47.6148 21.7522 47.6019 21.7125 47.5992 21.6678H48.2915L48.2939 21.5914Z" fill="#85C556"/>
<path d="M50.1765 20.8711V22.0831H49.9895V21.5864C49.9895 21.4836 49.992 21.3891 49.9973 21.3075L50.0079 21.1843L50.0473 21.1237L50.0236 21.0578C50.0154 21.0999 50.0108 21.1421 50.0079 21.1843L49.6522 21.7362H49.5366L49.1866 21.1843C49.1919 21.2207 49.1944 21.2605 49.1972 21.2969C49.2025 21.3788 49.205 21.4758 49.205 21.5864V22.0831H49.0181V20.8711H49.2025L49.6001 21.518L50.0026 20.8711H50.1765Z" fill="#85C556"/>
<path d="M50.8974 22.099C50.8038 22.099 50.7211 22.0792 50.6487 22.0395C50.5763 21.9994 50.52 21.9449 50.4788 21.8758C50.4376 21.8064 50.4175 21.7266 50.4175 21.6367C50.4175 21.5651 50.4288 21.5002 50.4519 21.4411C50.4749 21.3823 50.5072 21.3313 50.548 21.288C50.5892 21.2449 50.6384 21.2111 50.6955 21.1877C50.7526 21.1644 50.8147 21.1523 50.8817 21.1523C50.941 21.1523 50.9956 21.1633 51.0463 21.186C51.0974 21.2083 51.1414 21.2395 51.1789 21.2785C51.2166 21.3174 51.2453 21.3638 51.2658 21.4177C51.2861 21.4716 51.2957 21.5303 51.2943 21.5934L51.2925 21.6696H50.5491L50.5093 21.5279H51.1385L51.1123 21.5569V21.5155C51.1087 21.4776 51.0959 21.4436 51.0744 21.4135C51.0523 21.3837 51.0247 21.3599 50.991 21.3426C50.9576 21.3252 50.9211 21.3168 50.8817 21.3168C50.8197 21.3168 50.7668 21.3284 50.7243 21.3522C50.6813 21.3759 50.6495 21.4106 50.6271 21.456C50.6051 21.5017 50.5941 21.5576 50.5941 21.6246C50.5941 21.688 50.6076 21.7433 50.6342 21.79C50.6607 21.8369 50.6984 21.873 50.747 21.8981C50.7952 21.9236 50.8512 21.9364 50.9151 21.9364C50.9601 21.9364 51.002 21.9286 51.0406 21.9137C51.0792 21.8988 51.1211 21.8716 51.1662 21.8325L51.2566 21.9587C51.2286 21.9864 51.1949 22.0108 51.1552 22.0314L51.0286 22.0809C50.9842 22.093 50.9399 22.099 50.8974 22.099Z" fill="#85C556"/>
<path d="M51.4868 22.0802V21.1712H51.6653V21.3582L51.634 21.3791C51.6455 21.3387 51.6681 21.3015 51.7014 21.2675C51.7352 21.2335 51.7748 21.2058 51.821 21.1842C51.8675 21.163 51.9149 21.1523 51.9632 21.1523C52.0324 21.1523 52.0905 21.1658 52.1366 21.1931C52.1827 21.22 52.2171 21.2614 52.2406 21.3168C52.2639 21.3723 52.2753 21.4421 52.2753 21.5262V22.0802H52.0965V21.5382C52.0965 21.4861 52.0898 21.4432 52.0756 21.4092C52.0618 21.3752 52.0405 21.3504 52.0118 21.3352C51.9831 21.3195 51.9469 21.3128 51.9043 21.315C51.8699 21.315 51.838 21.3203 51.8093 21.3313C51.7801 21.3426 51.755 21.3575 51.7337 21.3773L51.6833 21.4457C51.6713 21.4716 51.6653 21.4996 51.6653 21.5297V22.0802H51.4868Z" fill="#85C556"/>
<path d="M53.0202 21.1728V21.3461H52.8099V22.0822H52.6307V21.3461H52.4438V21.1728H52.6307V20.9414H52.8099V21.1728H53.0202Z" fill="#85C556"/>
<path d="M53.5732 21.9328C53.6275 21.9328 53.6751 21.9194 53.7169 21.8929C53.7588 21.8666 53.7914 21.8298 53.8152 21.783C53.8389 21.7362 53.8506 21.6831 53.8506 21.6228C53.8506 21.564 53.8389 21.5112 53.8152 21.4652C53.7914 21.4191 53.7588 21.3826 53.7169 21.3561C53.6751 21.3298 53.6275 21.3163 53.5732 21.3163C53.5197 21.3163 53.4729 21.3295 53.4318 21.3561C53.3906 21.3826 53.3583 21.4191 53.335 21.4652C53.3112 21.5112 53.2991 21.564 53.2991 21.6228C53.2991 21.6827 53.3112 21.7362 53.335 21.783C53.3586 21.8298 53.3906 21.8666 53.4318 21.8929C53.4729 21.9194 53.5197 21.9328 53.5732 21.9328ZM53.5261 22.0972C53.4509 22.0972 53.3825 22.0763 53.3208 22.0349C53.259 21.9934 53.2098 21.9368 53.1725 21.8652C53.1356 21.7939 53.1172 21.7128 53.1172 21.6228C53.1172 21.5318 53.136 21.4507 53.1736 21.3798C53.2111 21.3089 53.2618 21.2533 53.3261 21.2126C53.3899 21.1722 53.4622 21.1523 53.5417 21.1523C53.5889 21.1523 53.6325 21.1591 53.6715 21.1733C53.7109 21.1871 53.7452 21.2062 53.7747 21.231C53.8045 21.2561 53.8287 21.2845 53.8478 21.3168C53.8665 21.349 53.8783 21.3834 53.8833 21.4206L53.8435 21.4064V21.1712H54.0237V22.0802H53.8435V21.8638L53.885 21.8517C53.878 21.8829 53.8638 21.913 53.8424 21.9424C53.8212 21.9722 53.7939 21.9984 53.7609 22.0214C53.7279 22.0448 53.6914 22.0629 53.6516 22.0771C53.6119 22.0905 53.5701 22.0972 53.5261 22.0972Z" fill="#85C556"/>
<path d="M54.2749 20.8008H54.4537V22.0815H54.2749V20.8008Z" fill="#85C556"/>
<path d="M56.2176 20.8711V22.0831H56.0307V21.5707H55.4253V22.0831H55.2383V20.8711H55.4253V21.3894H56.0307V20.8711H56.2176Z" fill="#85C556"/>
<path d="M56.9358 22.099C56.842 22.099 56.7596 22.0792 56.687 22.0395C56.6149 21.9994 56.5585 21.9449 56.5174 21.8758C56.4762 21.8064 56.4556 21.7266 56.4556 21.6367C56.4556 21.5651 56.4669 21.5002 56.4903 21.4411C56.5136 21.3823 56.5455 21.3313 56.5862 21.288C56.6274 21.2449 56.6767 21.2111 56.7341 21.1877C56.7911 21.1644 56.8528 21.1523 56.92 21.1523C56.9791 21.1523 57.0339 21.1633 57.0848 21.186C57.1352 21.2083 57.1797 21.2395 57.2171 21.2785C57.255 21.3174 57.2832 21.3638 57.3038 21.4177C57.3244 21.4716 57.3336 21.5303 57.3325 21.5934L57.3309 21.6696H56.5873L56.5472 21.5279H57.1764L57.1504 21.5569V21.5155C57.1471 21.4776 57.1341 21.4436 57.1125 21.4135C57.0908 21.3837 57.0626 21.3599 57.0295 21.3426C56.9959 21.3252 56.9596 21.3168 56.92 21.3168C56.8577 21.3168 56.8051 21.3284 56.7623 21.3522C56.7195 21.3759 56.6875 21.4106 56.6653 21.456C56.6431 21.5017 56.6323 21.5576 56.6323 21.6246C56.6323 21.688 56.6458 21.7433 56.6724 21.79C56.6989 21.8369 56.7363 21.873 56.7851 21.8981C56.8333 21.9236 56.8897 21.9364 56.9531 21.9364C56.9981 21.9364 57.0398 21.9286 57.0788 21.9137C57.1173 21.8988 57.1591 21.8716 57.2046 21.8325L57.2946 21.9587C57.2669 21.9864 57.2333 22.0108 57.1932 22.0314L57.0664 22.0809C57.0225 22.093 56.9786 22.099 56.9358 22.099Z" fill="#85C556"/>
<path d="M57.9241 21.9328C57.9783 21.9328 58.0255 21.9194 58.0677 21.8929C58.1095 21.8666 58.142 21.8298 58.1658 21.783C58.1897 21.7362 58.2011 21.6831 58.2011 21.6228C58.2011 21.564 58.1897 21.5112 58.1658 21.4652C58.142 21.4191 58.1095 21.3826 58.0677 21.3561C58.0255 21.3298 57.9783 21.3163 57.9241 21.3163C57.8705 21.3163 57.8233 21.3295 57.7827 21.3561C57.7415 21.3826 57.7095 21.4191 57.6857 21.4652C57.6618 21.5112 57.6499 21.564 57.6499 21.6228C57.6499 21.6827 57.6618 21.7362 57.6857 21.783C57.7095 21.8298 57.7415 21.8666 57.7827 21.8929C57.8233 21.9194 57.8705 21.9328 57.9241 21.9328ZM57.877 22.0972C57.8022 22.0972 57.7333 22.0763 57.6716 22.0349C57.6098 21.9934 57.5605 21.9368 57.5231 21.8652C57.4862 21.7939 57.4678 21.7128 57.4678 21.6228C57.4678 21.5318 57.4867 21.4507 57.5241 21.3798C57.5615 21.3089 57.6125 21.2533 57.6764 21.2126C57.7404 21.1722 57.813 21.1523 57.8921 21.1523C57.9393 21.1523 57.9832 21.1591 58.0222 21.1733C58.0612 21.1871 58.0959 21.2062 58.1257 21.231C58.155 21.2561 58.1794 21.2845 58.1984 21.3168C58.2173 21.349 58.2293 21.3834 58.2336 21.4206L58.194 21.4064V21.1712H58.3745V22.0802H58.194V21.8638L58.2358 21.8517C58.2287 21.8829 58.2141 21.913 58.1929 21.9424C58.1718 21.9722 58.1447 21.9984 58.1116 22.0214C58.0791 22.0448 58.0423 22.0629 58.0022 22.0771C57.9626 22.0905 57.9209 22.0972 57.877 22.0972Z" fill="#85C556"/>
<path d="M58.6279 20.8008H58.8062V22.0815H58.6279V20.8008Z" fill="#85C556"/>
<path d="M59.1662 20.9414H59.3445V22.0822H59.1662V20.9414ZM58.9771 21.1731H59.5559V21.3463H58.9771V21.1731Z" fill="#85C556"/>
<path d="M59.7202 22.0818V20.8008H59.8991V21.3598L59.8682 21.3804C59.8796 21.34 59.9018 21.3028 59.9354 21.2692C59.969 21.2351 60.0085 21.2071 60.0552 21.1859C60.1012 21.1642 60.1484 21.1536 60.1972 21.1536C60.2665 21.1536 60.3245 21.1675 60.3706 21.1944C60.4167 21.2213 60.4508 21.2628 60.4747 21.3184C60.498 21.3736 60.5093 21.4435 60.5093 21.5277V22.0815H60.331V21.5398C60.331 21.4877 60.324 21.4449 60.3099 21.4108C60.2958 21.3769 60.2741 21.352 60.2459 21.3368C60.2172 21.3212 60.1809 21.3144 60.1386 21.3166C60.1039 21.3166 60.072 21.322 60.0432 21.3329C60.0145 21.3442 59.989 21.3591 59.9679 21.3789L59.9175 21.4473C59.9056 21.4732 59.8991 21.5012 59.8991 21.5313V22.0818H59.7202Z" fill="#85C556"/>
<path d="M61.4673 21.439H61.7708C61.8017 21.439 61.8304 21.4302 61.8559 21.4121C61.8813 21.3944 61.9014 21.3707 61.9171 21.3413C61.9328 21.3118 61.9404 21.2793 61.9404 21.2434C61.9404 21.2077 61.9328 21.1751 61.9171 21.1467C61.9014 21.1178 61.8813 21.0947 61.8559 21.0773C61.8304 21.06 61.8017 21.0515 61.7708 21.0515H61.4673V21.439ZM61.2803 22.0831V20.8711H61.774C61.8407 20.8711 61.8998 20.8874 61.9534 20.9204C62.0076 20.9533 62.0504 20.9979 62.083 21.0542C62.1155 21.111 62.1317 21.1736 62.1317 21.2428C62.1317 21.3122 62.1155 21.3752 62.083 21.4316C62.0504 21.4879 62.0076 21.5336 61.9534 21.5673C61.8998 21.6013 61.8407 21.6183 61.774 21.6183H61.4678V22.0821L61.2803 22.0831Z" fill="#85C556"/>
<path d="M62.3354 22.0802V21.1712H62.5154V21.457L62.498 21.3876C62.5111 21.3437 62.5327 21.3039 62.5631 21.2682C62.594 21.2325 62.6287 21.2044 62.6688 21.1836C62.7089 21.1626 62.7501 21.1523 62.7929 21.1523L62.8487 21.1573C62.8671 21.1609 62.8812 21.1648 62.8915 21.1694L62.8444 21.3635C62.8308 21.3575 62.8156 21.3525 62.7988 21.3487L62.7495 21.3426C62.7181 21.3426 62.6883 21.3487 62.6601 21.3607C62.6319 21.3731 62.607 21.3894 62.5858 21.411L62.5349 21.4854C62.5219 21.5137 62.5154 21.5442 62.5154 21.5778V22.0798L62.3354 22.0802Z" fill="#85C556"/>
<path d="M63.4044 21.9353C63.4586 21.9353 63.5073 21.9215 63.5502 21.8945C63.593 21.8673 63.626 21.8305 63.6504 21.784C63.6748 21.7373 63.6862 21.6845 63.6851 21.6257C63.6862 21.5654 63.6748 21.5119 63.6504 21.4652C63.626 21.4184 63.5924 21.3819 63.5502 21.3553C63.5073 21.3288 63.4586 21.3157 63.4044 21.3157C63.3502 21.3157 63.3014 21.3291 63.258 21.3561C63.2147 21.3833 63.1811 21.4205 63.1567 21.467C63.1328 21.5137 63.1215 21.5665 63.122 21.6253C63.1209 21.6841 63.1323 21.737 63.1567 21.7837C63.1816 21.8305 63.2147 21.8673 63.258 21.8942C63.3014 21.9211 63.3502 21.9353 63.4044 21.9353ZM63.4044 22.0976C63.3155 22.0976 63.2364 22.077 63.1664 22.0363C63.0965 21.9952 63.0412 21.9396 63.0006 21.868C62.9599 21.7975 62.9404 21.7164 62.9404 21.625C62.9404 21.5339 62.9599 21.4528 63.0006 21.3819C63.0412 21.3111 63.0965 21.2547 63.1664 21.214C63.2364 21.1729 63.3155 21.1523 63.4044 21.1523C63.4922 21.1523 63.5713 21.1729 63.6412 21.214C63.7106 21.2547 63.7664 21.3107 63.8065 21.3819C63.8472 21.4528 63.8672 21.5339 63.8672 21.625C63.8672 21.7164 63.8472 21.7975 63.8065 21.868C63.7664 21.9393 63.7111 21.9952 63.6412 22.0363C63.5713 22.077 63.4922 22.0976 63.4044 22.0976Z" fill="#85C556"/>
<path d="M64.4747 21.9335C64.5311 21.9335 64.582 21.9201 64.6259 21.8936C64.6693 21.8673 64.7034 21.8308 64.7278 21.7844C64.7522 21.738 64.7642 21.6852 64.7642 21.6253C64.7642 21.5654 64.7517 21.5119 64.7268 21.4652C64.7018 21.4184 64.6682 21.3819 64.6249 21.3553C64.5815 21.3284 64.5316 21.3153 64.4747 21.3153C64.4195 21.3153 64.3696 21.3291 64.3268 21.3561C64.2834 21.383 64.2487 21.4198 64.2243 21.4666C64.1994 21.5137 64.1869 21.5665 64.1869 21.625C64.1869 21.6838 64.1994 21.7365 64.2243 21.7833C64.2487 21.8301 64.2834 21.867 64.3268 21.8936C64.3696 21.9197 64.4195 21.9335 64.4747 21.9335ZM64.4677 22.4785C64.4032 22.4785 64.3387 22.4682 64.2742 22.4483C64.2102 22.4285 64.1588 22.4019 64.1192 22.3694L64.1848 22.2308C64.2081 22.2482 64.2352 22.2634 64.2666 22.2765L64.3652 22.3081C64.3999 22.3155 64.4341 22.319 64.4677 22.319C64.5311 22.319 64.5842 22.3087 64.627 22.2878C64.6693 22.2669 64.7018 22.2365 64.724 22.1961C64.7463 22.1557 64.7566 22.1054 64.7566 22.0455V21.8712L64.7761 21.8829C64.7701 21.919 64.7511 21.9531 64.7197 21.9863C64.6877 22.0189 64.6482 22.0459 64.601 22.0667C64.5544 22.0873 64.5051 22.0976 64.4558 22.0976C64.3685 22.0976 64.2915 22.077 64.2243 22.0363C64.1566 21.9952 64.1029 21.9396 64.0639 21.868C64.0249 21.7975 64.0054 21.7164 64.0054 21.625C64.0054 21.5339 64.0249 21.4528 64.0634 21.3819C64.1018 21.3111 64.155 21.2547 64.2227 21.214C64.2905 21.1729 64.3663 21.1523 64.4503 21.1523L64.5512 21.1655C64.5831 21.1743 64.6135 21.1864 64.6417 21.2019L64.7159 21.253C64.7376 21.2714 64.7555 21.2913 64.7696 21.3122L64.7956 21.3709L64.7576 21.3847V21.1714H64.936V22.025C64.936 22.0979 64.9251 22.1621 64.904 22.2184C64.8828 22.2744 64.8514 22.3215 64.8108 22.3605C64.7707 22.3991 64.7213 22.4285 64.6639 22.4487C64.6059 22.4689 64.5409 22.4788 64.4682 22.4788" fill="#85C556"/>
<path d="M65.1846 22.0802V21.1712H65.3651V21.457L65.3477 21.3876C65.3602 21.3437 65.3819 21.3039 65.4127 21.2682C65.4431 21.2325 65.4783 21.2044 65.5184 21.1836C65.5585 21.1626 65.5992 21.1523 65.6425 21.1523L65.6989 21.1573C65.7163 21.1609 65.7309 21.1648 65.7412 21.1694L65.694 21.3635C65.6805 21.3575 65.6648 21.3525 65.6485 21.3487L65.5992 21.3426C65.5678 21.3426 65.5379 21.3487 65.5098 21.3607C65.481 21.3731 65.4566 21.3894 65.435 21.411L65.3846 21.4854C65.3716 21.5137 65.3651 21.5442 65.3651 21.5778V22.0798L65.1846 22.0802Z" fill="#85C556"/>
<path d="M66.2419 21.9328C66.2961 21.9328 66.3444 21.9194 66.3861 21.8929C66.4284 21.8666 66.4604 21.8298 66.4842 21.783C66.5081 21.7362 66.5194 21.6831 66.5194 21.6228C66.5194 21.564 66.5081 21.5112 66.4842 21.4652C66.4604 21.4191 66.4284 21.3826 66.3861 21.3561C66.3444 21.3298 66.2961 21.3163 66.2419 21.3163C66.1888 21.3163 66.1422 21.3295 66.101 21.3561C66.0598 21.3826 66.0273 21.4191 66.004 21.4652C65.9802 21.5112 65.9682 21.564 65.9682 21.6228C65.9682 21.6827 65.9802 21.7362 66.004 21.783C66.0273 21.8298 66.0598 21.8666 66.101 21.8929C66.1422 21.9194 66.1888 21.9328 66.2419 21.9328ZM66.1953 22.0972C66.12 22.0972 66.0517 22.0763 65.9899 22.0349C65.9281 21.9934 65.8788 21.9368 65.842 21.8652C65.8046 21.7939 65.7861 21.7128 65.7861 21.6228C65.7861 21.5318 65.8046 21.4507 65.8425 21.3798C65.8799 21.3089 65.9308 21.2533 65.9948 21.2126C66.0593 21.1722 66.1308 21.1523 66.2105 21.1523C66.2582 21.1523 66.3016 21.1591 66.3406 21.1733C66.3796 21.1871 66.4148 21.2062 66.4441 21.231C66.4734 21.2561 66.4978 21.2845 66.5167 21.3168C66.5357 21.349 66.5476 21.3834 66.5525 21.4206L66.5118 21.4064V21.1712H66.6929V22.0802H66.5118V21.8638L66.5536 21.8517C66.5471 21.8829 66.533 21.913 66.5113 21.9424C66.4902 21.9722 66.4631 21.9984 66.43 22.0214C66.3969 22.0448 66.3606 22.0629 66.3211 22.0771C66.281 22.0905 66.2387 22.0976 66.1948 22.0976" fill="#85C556"/>
<path d="M66.9399 22.0809V21.1718H67.1199V21.3659L67.0868 21.3865C67.0966 21.3567 67.1107 21.3277 67.1313 21.3001C67.1519 21.2721 67.1762 21.248 67.2055 21.2267L67.3009 21.1754C67.335 21.163 67.3697 21.1566 67.406 21.1566C67.4581 21.1566 67.5036 21.1648 67.5432 21.1824C67.5822 21.1998 67.6147 21.2256 67.6402 21.26C67.6651 21.2948 67.6841 21.3379 67.6955 21.3901L67.6678 21.383L67.6797 21.3535C67.6928 21.327 67.7101 21.3018 67.7329 21.2781L67.8098 21.215C67.8386 21.1966 67.87 21.1821 67.902 21.1714L67.9968 21.1562C68.0656 21.1562 68.1215 21.1701 68.1659 21.1977C68.2109 21.225 68.244 21.2675 68.2667 21.3238C68.2884 21.3805 68.3009 21.451 68.3009 21.535V22.0805H68.1198V21.5459C68.1198 21.4939 68.1133 21.4514 68.1003 21.4184C68.0868 21.3858 68.0667 21.361 68.0402 21.345C68.0136 21.3291 67.9795 21.3206 67.9377 21.3206C67.9058 21.3206 67.8754 21.3263 67.8472 21.3369C67.8185 21.3479 67.7941 21.3635 67.7735 21.383C67.7524 21.4028 67.7367 21.4255 67.7253 21.4514C67.7139 21.4772 67.7074 21.5063 67.7074 21.5371V22.0805H67.5275V21.5424C67.5275 21.4949 67.5204 21.4549 67.5063 21.4219C67.4928 21.3894 67.4727 21.3642 67.4456 21.3465C67.4196 21.3291 67.3871 21.3206 67.3486 21.3206C67.3166 21.3206 67.2868 21.3263 67.2586 21.3369L67.186 21.3819C67.1654 21.401 67.1491 21.4233 67.1372 21.4496C67.1258 21.4755 67.1204 21.5034 67.1204 21.5336V22.0802L66.9399 22.0809Z" fill="#85C556"/>
<path d="M68.5361 22.0809V21.1718H68.7161V21.3659L68.6836 21.3865C68.6922 21.3567 68.7074 21.3277 68.7269 21.3001C68.748 21.2721 68.7719 21.248 68.8022 21.2267L68.8976 21.1754C68.9307 21.163 68.9659 21.1566 69.0022 21.1566C69.0543 21.1566 69.0998 21.1648 69.1388 21.1824C69.1784 21.1998 69.2104 21.2256 69.2358 21.26C69.2619 21.2948 69.2797 21.3379 69.2917 21.3901L69.2635 21.383L69.2759 21.3535C69.2889 21.327 69.3057 21.3018 69.3291 21.2781L69.4055 21.215C69.4347 21.1966 69.4656 21.1821 69.4982 21.1714L69.593 21.1562C69.6613 21.1562 69.7177 21.1701 69.7621 21.1977C69.8065 21.225 69.8407 21.2675 69.8624 21.3238C69.8846 21.3805 69.8965 21.451 69.8965 21.535V22.0805H69.7166V21.5459C69.7166 21.4939 69.7095 21.4514 69.696 21.4184C69.683 21.3858 69.6629 21.361 69.6364 21.345C69.6098 21.3291 69.5757 21.3206 69.5345 21.3206C69.5014 21.3206 69.4716 21.3263 69.4434 21.3369C69.4152 21.3479 69.3903 21.3635 69.3692 21.383C69.3491 21.4028 69.3323 21.4255 69.3209 21.4514C69.3101 21.4772 69.3041 21.5063 69.3041 21.5371V22.0805H69.1231V21.5424C69.1231 21.4949 69.1171 21.4549 69.1025 21.4219C69.0884 21.3894 69.0684 21.3642 69.0418 21.3465C69.0152 21.3291 68.9833 21.3206 68.9453 21.3206C68.9123 21.3206 68.883 21.3263 68.8554 21.3369L68.7822 21.3819C68.7611 21.401 68.7453 21.4233 68.734 21.4496C68.722 21.4755 68.7161 21.5034 68.7161 21.5336V22.0802L68.5361 22.0809Z" fill="#85C556"/>
<path d="M70.5592 22.099C70.4655 22.099 70.3826 22.0792 70.3105 22.0395C70.2384 21.9994 70.1815 21.9449 70.1408 21.8758C70.0996 21.8064 70.0796 21.7266 70.0796 21.6367C70.0796 21.5651 70.0904 21.5002 70.1137 21.4411C70.1365 21.3823 70.1685 21.3313 70.2097 21.288C70.2514 21.2449 70.3002 21.2111 70.3576 21.1877C70.414 21.1644 70.4763 21.1523 70.5435 21.1523C70.6026 21.1523 70.6568 21.1633 70.7083 21.186C70.7592 21.2083 70.8026 21.2395 70.8411 21.2785C70.8785 21.3174 70.9072 21.3638 70.9278 21.4177C70.9478 21.4716 70.9571 21.5303 70.956 21.5934L70.9544 21.6696H70.2107L70.1706 21.5279H70.7999L70.7733 21.5569V21.5155C70.7706 21.4776 70.7576 21.4436 70.7359 21.4135C70.7143 21.3837 70.6861 21.3599 70.653 21.3426C70.6194 21.3252 70.5831 21.3168 70.5435 21.3168C70.4812 21.3168 70.4286 21.3284 70.3864 21.3522C70.343 21.3759 70.311 21.4106 70.2888 21.456C70.2671 21.5017 70.2557 21.5576 70.2557 21.6246C70.2557 21.688 70.2687 21.7433 70.2964 21.79C70.3229 21.8369 70.3598 21.873 70.4086 21.8981C70.4574 21.9236 70.5132 21.9364 70.5766 21.9364C70.6221 21.9364 70.6638 21.9286 70.7023 21.9137C70.7414 21.8988 70.7825 21.8716 70.8281 21.8325L70.9186 21.9587C70.8899 21.9864 70.8568 22.0108 70.8172 22.0314L70.6904 22.0809C70.646 22.093 70.6026 22.099 70.5592 22.099Z" fill="#85C556"/>
<path fill-rule="evenodd" clip-rule="evenodd" d="M20.238 29.3945V30.8202H20.6764C20.7402 30.6292 20.7754 30.4248 20.7754 30.2123C20.7754 29.9199 20.7097 29.6429 20.5923 29.3945H20.238Z" fill="#207ABE"/>
<path fill-rule="evenodd" clip-rule="evenodd" d="M19.6113 29.3945H20.0394V30.8202H19.6113V29.3945Z" fill="#207ABE"/>
<path fill-rule="evenodd" clip-rule="evenodd" d="M19.0398 29.3945H19.4395V30.8202H19.0398V29.3945Z" fill="#207ABE"/>
<path fill-rule="evenodd" clip-rule="evenodd" d="M17.384 29.3945H17.7266V30.8202H17.384V29.3945Z" fill="#207ABE"/>
<path fill-rule="evenodd" clip-rule="evenodd" d="M17.8689 29.3945H18.3257V30.8202H17.8689V29.3945Z" fill="#207ABE"/>
<path fill-rule="evenodd" clip-rule="evenodd" d="M18.4702 29.3945H18.8983V30.8202H18.4702V29.3945Z" fill="#207ABE"/>
<path fill-rule="evenodd" clip-rule="evenodd" d="M34.5675 11.5446H34.0887L34.0628 11.4563C33.5922 9.82239 32.864 8.28082 31.8979 6.87464C30.946 5.489 29.7869 4.26816 28.4526 3.24672C27.1041 2.21398 25.6106 1.41075 24.0132 0.859474C22.3611 0.289126 20.6292 0 18.8651 0C17.101 0 15.3694 0.289127 13.717 0.859138C12.12 1.41042 10.6261 2.21398 9.27763 3.24638C7.9437 4.26816 6.78423 5.48868 5.83233 6.87464C4.86655 8.2805 4.13804 9.82201 3.6674 11.4563L3.6415 11.5446H2.99529C1.99086 11.5446 1.17334 12.3648 1.17334 13.372V18.3692C1.17334 19.3776 1.99086 20.1974 2.99529 20.1974H4.32638L4.35262 20.2842C5.19639 23.0806 6.82152 25.5646 9.05309 27.4675C11.3081 29.3899 14.0466 30.4318 16.9722 30.7978L17.046 30.807L17.0509 30.8208H17.2418V29.3952H17.1344L17.1307 29.4019L17.0818 29.3952H17.0272V29.3878C14.4863 29.0473 12.0948 28.1672 10.1111 26.5244C8.14548 24.8967 6.67112 22.765 5.84719 20.3597C5.60037 19.6387 5.4145 18.9004 5.29 18.1507C5.16591 17.4006 5.10311 16.6393 5.10311 15.8712C5.10311 14.0072 5.467 12.1989 6.18485 10.4966C6.87789 8.85229 7.86988 7.3756 9.13363 6.10757C10.3976 4.8396 11.8692 3.84404 13.5078 3.14857C15.2052 2.42866 17.0073 2.06338 18.8651 2.06338C20.7229 2.06338 22.5249 2.42866 24.2217 3.14857C25.8607 3.8437 27.3322 4.8396 28.5959 6.10725C29.8599 7.37527 30.8524 8.85197 31.5453 10.4962C32.2632 12.1986 32.6271 14.0069 32.6271 15.8708C32.6271 17.35 32.3948 18.8043 31.9373 20.1974H34.5675C35.572 20.1974 36.3891 19.3776 36.3891 18.3692V13.372C36.3891 12.3644 35.5716 11.5446 34.5675 11.5446Z" fill="#207ABE"/>
<path d="M39.114 24.2109V27.6557H38.1659V24.9638H37.5435V24.2109H39.114Z" fill="white"/>
<path d="M44.6916 26.9964H44.194V27.6557H43.2697V26.9964H41.498V26.3615L43.0015 24.2109H43.9833L42.6185 26.224H43.2984V25.638H44.194V26.224H44.6916V26.9964Z" fill="white"/>
<path d="M49.9591 26.9964H49.4615V27.6557H48.5372V26.9964H46.7656V26.3615L48.269 24.2109H49.2507L47.886 26.224H48.5659V25.638H49.4615V26.224H49.9591V26.9964Z" fill="white"/>
<path d="M53.381 24.2109V27.6557H52.433V24.9638H51.8105V24.2109H53.381Z" fill="white"/>
<path d="M57.7478 26.5912C57.7478 26.3255 57.5608 26.1583 57.2876 26.1583C57.015 26.1583 56.8237 26.3355 56.8237 26.5962C56.8237 26.852 57.0058 27.0292 57.293 27.0292C57.5608 27.0292 57.7478 26.862 57.7478 26.5912ZM58.667 26.5473C58.667 27.2654 58.0832 27.7232 57.3505 27.7232C56.4123 27.7232 55.7993 27.1429 55.7993 26.0254C55.7993 24.8247 56.5223 24.1406 57.5803 24.1406C57.9591 24.1406 58.3223 24.2292 58.5667 24.3918L58.222 25.0905C58.0307 24.9526 57.8198 24.9133 57.6041 24.9133C57.1256 24.9133 56.8047 25.189 56.757 25.7155C56.9434 25.5482 57.1976 25.4597 57.5136 25.4597C58.1456 25.4597 58.667 25.888 58.667 26.5473Z" fill="white"/>
<path d="M67.7574 23.9102C66.7097 23.9102 65.8599 24.7583 65.8599 25.8045C65.8599 26.8511 66.7097 27.6993 67.7574 27.6993C68.805 27.6993 69.6543 26.8511 69.6543 25.8045C69.6543 24.7583 68.805 23.9102 67.7574 23.9102Z" fill="white"/>
<path d="M68.6692 27.0328L68.6583 27.0232C68.6187 27.0508 68.4318 27.2339 68.1483 27.1015C67.9532 27.0097 67.408 26.4875 67.2107 26.2065C67.0139 25.9256 66.7088 25.2351 66.6898 25.0204C66.6616 24.7089 66.8985 24.5963 66.9381 24.5686L66.9326 24.5552L67.1277 24.4609C67.1738 24.496 67.2996 24.6384 67.3857 24.8496C67.4958 25.1157 67.4584 25.2602 67.4584 25.2602L67.2822 25.3283L67.2773 25.3173C67.1055 25.4278 67.2286 25.6107 67.2714 25.6719C67.3142 25.7336 67.4107 25.8703 67.5028 26.0025C67.5955 26.1343 67.6914 26.2714 67.7342 26.3327C67.7776 26.3943 67.9077 26.5715 68.0708 26.4485L68.0616 26.4404L68.1857 26.2987C68.1857 26.2987 68.3342 26.3125 68.5472 26.5066C68.7163 26.6604 68.8068 26.8265 68.8242 26.8822L68.6692 27.0328Z" fill="#85C556"/>
</g>
<defs>
<clipPath id="clip0_3734_75531">
<rect width="71" height="30.8931" fill="white" transform="translate(0.764648)"/>
</clipPath>
</defs>
</svg>
